<svg xmlns="http://www.w3.org/2000/svg" xmlns:xlink="http://www.w3.org/1999/xlink" width="400" zoomAndPan="magnify" viewBox="0 0 300 299.999988" height="400" preserveAspectRatio="xMidYMid meet" version="1.0"><defs><g/></defs><g fill="#ffffff" fill-opacity="1"><g transform="translate(47.208986, 198.089848)"><g><path d="M 65.203125 0 L 48.796875 0 C 45.421875 0 42.070312 -0.4375 38.75 -1.3125 C 35.4375 -2.1875 32.425781 -3.785156 29.71875 -6.109375 C 27.019531 -8.441406 24.851562 -11.773438 23.21875 -16.109375 C 21.59375 -20.441406 20.78125 -26.070312 20.78125 -33 L 20.78125 -75.859375 L 0.953125 -75.859375 L 0.953125 -89.046875 L 20.78125 -89.046875 L 20.78125 -115.484375 L 35.796875 -115.578125 L 35.796875 -89.046875 L 65.203125 -89.046875 L 65.203125 -75.859375 L 35.796875 -75.859375 L 35.796875 -32.296875 C 35.796875 -28.160156 36.242188 -24.796875 37.140625 -22.203125 C 38.046875 -19.617188 39.269531 -17.644531 40.8125 -16.28125 C 42.351562 -14.914062 44.066406 -13.984375 45.953125 -13.484375 C 47.847656 -12.992188 49.785156 -12.75 51.765625 -12.75 L 65.203125 -12.75 Z M 65.203125 0 "/></g></g></g><g fill="#ffffff" fill-opacity="1"><g transform="translate(117.389988, 198.089848)"><g><path d="M 90.609375 0 L 73.59375 0 L 46.09375 -43.46875 L 29.421875 -25.046875 L 29.421875 0 L 14.40625 0 L 14.40625 -122.90625 L 29.421875 -122.90625 L 29.421875 -41.640625 L 67.65625 -89.046875 L 86.078125 -89.046875 L 57.09375 -53.34375 Z M 90.609375 0 "/></g></g></g><g fill="#ffffff" fill-opacity="1"><g transform="translate(209.393441, 198.089848)"><g><path d="M 23.3125 -72.71875 C 20.394531 -72.71875 18.019531 -73.632812 16.1875 -75.46875 C 14.351562 -77.300781 13.4375 -79.5 13.4375 -82.0625 C 13.4375 -84.625 14.351562 -86.816406 16.1875 -88.640625 C 18.019531 -90.472656 20.394531 -91.390625 23.3125 -91.390625 C 26.21875 -91.390625 28.585938 -90.472656 30.421875 -88.640625 C 32.253906 -86.816406 33.171875 -84.625 33.171875 -82.0625 C 33.171875 -79.5 32.253906 -77.300781 30.421875 -75.46875 C 28.585938 -73.632812 26.21875 -72.71875 23.3125 -72.71875 Z M 19.296875 15.796875 L 8.03125 15.796875 L 17.890625 -15.53125 L 32.828125 -15.53125 Z M 19.296875 15.796875 "/></g></g></g></svg>