<svg xmlns="http://www.w3.org/2000/svg" xmlns:xlink="http://www.w3.org/1999/xlink" width="400" zoomAndPan="magnify" viewBox="0 0 300 299.999988" height="400" preserveAspectRatio="xMidYMid meet" version="1.0"><defs><g/><clipPath id="b1a0331e5b"><rect x="0" width="191" y="0" height="259"/></clipPath></defs><g transform="matrix(1, 0, 0, 1, 58, 15)"><g clip-path="url(#b1a0331e5b)"><g fill="#ffffff" fill-opacity="1"><g transform="translate(0.34115, 190.868225)"><g><path d="M 33.25 1.4375 C 25.03125 1.4375 19.367188 -0.289062 16.265625 -3.75 C 13.171875 -7.207031 11.625 -12.75 11.625 -20.375 L 11.625 -102.078125 L 2.859375 -102.078125 L 2.859375 -125.859375 L 11.625 -125.859375 L 11.625 -153.578125 L 42.015625 -153.578125 L 42.015625 -125.859375 L 50.953125 -125.859375 L 50.953125 -102.078125 L 42.015625 -102.078125 L 42.015625 -28.609375 C 42.015625 -26.335938 42.191406 -24.664062 42.546875 -23.59375 C 42.910156 -22.519531 43.863281 -21.984375 45.40625 -21.984375 C 46.601562 -21.984375 47.738281 -22.039062 48.8125 -22.15625 C 49.882812 -22.28125 50.597656 -22.34375 50.953125 -22.34375 L 50.953125 -0.890625 C 49.160156 -0.410156 46.566406 0.09375 43.171875 0.625 C 39.773438 1.164062 36.46875 1.4375 33.25 1.4375 Z M 33.25 1.4375 "/></g></g></g><g fill="#ffffff" fill-opacity="1"><g transform="translate(54.86861, 190.868225)"><g><path d="M 6.25 0 L 6.25 -154.46875 L 37.1875 -154.46875 L 37.1875 -85.8125 L 52.203125 -130.875 L 84.5625 -130.875 L 64.890625 -74.015625 L 89.921875 0 L 56.671875 0 L 37.1875 -61.671875 L 37.1875 0 Z M 6.25 0 "/></g></g></g><g fill="#ffffff" fill-opacity="1"><g transform="translate(142.648996, 190.868225)"><g><path d="M 4.828125 0 L 4.828125 -26.109375 L 36.109375 -26.109375 L 36.109375 0 Z M 4.828125 0 "/></g></g></g></g></g></svg>